<?xml version="1.0" encoding="UTF-8"?>
<svg width="20px" height="20px" viewBox="0 0 20 20" version="1.1" xmlns="http://www.w3.org/2000/svg" xmlns:xlink="http://www.w3.org/1999/xlink">
    <!-- Generator: Sketch 52.2 (67145) - http://www.bohemiancoding.com/sketch -->
    <title>ic_account_circle 1</title>
    <desc>Created with Sketch.</desc>
    <defs>
        <path d="M10,0 C4.48,0 0,4.48 0,10 C0,15.52 4.48,20 10,20 C15.52,20 20,15.52 20,10 C20,4.48 15.52,0 10,0 L10,0 Z M10,3 C11.66,3 13,4.34 13,6 C13,7.66 11.66,9 10,9 C8.34,9 7,7.66 7,6 C7,4.34 8.34,3 10,3 L10,3 Z M10,17.2 C7.5,17.2 5.29,15.92 4,13.98 C4.03,11.99 8,10.9 10,10.9 C11.99,10.9 15.97,11.99 16,13.98 C14.71,15.92 12.5,17.2 10,17.2 L10,17.2 Z" id="path-1"></path>
    </defs>
    <g id="Page-1" stroke="none" stroke-width="1" fill="none" fill-rule="evenodd">
        <g id="вход" transform="translate(-377.000000, -295.000000)">
            <g id="ФОРМА" transform="translate(281.000000, 192.000000)">
                <g id="Username-or-email-Login" transform="translate(80.000000, 87.000000)">
                    <g id="Username-or-email">
                        <g id="ic_account_circle-1" transform="translate(16.000000, 16.000000)">
                            <mask id="mask-2" fill="white">
                                <use xlink:href="#path-1"></use>
                            </mask>
                            <use id="Mask" fill="#D1D1D1" xlink:href="#path-1"></use>
                        </g>
                    </g>
                </g>
            </g>
        </g>
    </g>
</svg>