<?xml version="1.0" encoding="UTF-8"?>
<svg width="21px" height="20px" viewBox="0 0 21 20" version="1.1" xmlns="http://www.w3.org/2000/svg" xmlns:xlink="http://www.w3.org/1999/xlink">
    <!-- Generator: Sketch 52.2 (67145) - http://www.bohemiancoding.com/sketch -->
    <title>Mask</title>
    <desc>Created with Sketch.</desc>
    <defs>
        <path d="M13.65,11 C12.83,8.67 10.61,7 8,7 C4.69,7 2,9.69 2,13 C2,16.31 4.69,19 8,19 C10.61,19 12.83,17.33 13.65,15 L18,15 L18,19 L22,19 L22,15 L24,15 L24,11 L13.65,11 L13.65,11 Z M8,15 C6.9,15 6,14.1 6,13 C6,11.9 6.9,11 8,11 C9.1,11 10,11.9 10,13 C10,14.1 9.1,15 8,15 L8,15 Z" id="path-1"></path>
    </defs>
    <g id="Page-1" stroke="none" stroke-width="1" fill="none" fill-rule="evenodd">
        <g id="вход" transform="translate(-377.000000, -367.000000)">
            <g id="ФОРМА" transform="translate(281.000000, 192.000000)">
                <g id="Username-or-email-Login" transform="translate(80.000000, 87.000000)">
                    <g id="Password" transform="translate(0.000000, 72.000000)">
                        <g id="ic_vpn_key-1" transform="translate(13.000000, 13.000000)">
                            <mask id="mask-2" fill="white">
                                <use xlink:href="#path-1"></use>
                            </mask>
                            <use id="Mask" fill="#D1D1D1" transform="translate(13.000000, 13.000000) rotate(-45.000000) translate(-13.000000, -13.000000) " xlink:href="#path-1"></use>
                        </g>
                    </g>
                </g>
            </g>
        </g>
    </g>
</svg>